<svg xmlns="http://www.w3.org/2000/svg" xmlns:xlink="http://www.w3.org/1999/xlink"><defs><linearGradient id="paint0_linear" x1="-3" y1="2" x2="28.518" y2="60.694" gradientUnits="userSpaceOnUse"><stop stop-color="#D10A42"/><stop offset="1" stop-color="#0041CA"/></linearGradient><linearGradient id="paint0_linear" x1="-2" y1="3" x2="21.475" y2="70.448" gradientUnits="userSpaceOnUse"><stop stop-color="#D10A42"/><stop offset="1" stop-color="#0041CA"/></linearGradient><linearGradient id="paint0_linear" x1="-2" y1="3" x2="29.023" y2="62.422" gradientUnits="userSpaceOnUse"><stop stop-color="#D10A42"/><stop offset="1" stop-color="#0041CA"/></linearGradient><linearGradient id="paint0_linear" x1="-3" y1="3" x2="19.444" y2="41.104" gradientUnits="userSpaceOnUse"><stop stop-color="#D10A42"/><stop offset="1" stop-color="#0041CA"/></linearGradient></defs><symbol id="icon-+5"><path d="M1.299 26.178L3.795.523h24.44v8.39H11.839l-.901 10.817c1.895-1.272 3.848-1.907 5.858-1.907 4.16 0 7.362 1.479 9.603 4.437 2.265 2.959 3.398 7.142 3.398 12.55 0 5.062-1.34 9.14-4.022 12.238-2.68 3.097-6.263 4.645-10.747 4.645-2.657 0-5.119-.624-7.384-1.872a14.173 14.173 0 01-5.373-5.27C.975 42.31.317 39.769.293 36.926h9.708c.161 2.103.681 3.732 1.56 4.888.878 1.156 2.01 1.733 3.397 1.733 1.618 0 2.866-.774 3.744-2.322.878-1.572 1.317-3.906 1.317-7.003 0-2.912-.531-5.108-1.594-6.587-1.04-1.48-2.508-2.219-4.403-2.219-1.849 0-3.282.636-4.299 1.907l-.624.867-7.8-2.011zM54.41 22.71h9.811v9.118h-9.81v14.11h-9.292v-14.11h-9.984V22.71h9.984V9.19h9.291v13.52z" fill="url(#paint0_linear)"/></symbol><symbol id="icon-350"><path d="M10.03 22.29h4.75c1.802 0 3.12-.624 3.951-1.872.856-1.272 1.283-2.959 1.283-5.062 0-2.01-.439-3.57-1.317-4.68-.855-1.133-2.011-1.699-3.467-1.699-1.364 0-2.485.532-3.363 1.595-.855 1.063-1.283 2.403-1.283 4.021H.774c0-2.634.6-4.992 1.802-7.072C3.801 5.418 5.5 3.777 7.672 2.598 9.868 1.42 12.295.83 14.952.83c4.646 0 8.286 1.283 10.921 3.848 2.635 2.566 3.952 6.079 3.952 10.54 0 2.287-.6 4.414-1.802 6.378-1.18 1.942-2.74 3.432-4.68 4.472 2.38 1.017 4.148 2.543 5.303 4.576 1.18 2.034 1.769 4.438 1.769 7.212 0 4.483-1.433 8.077-4.3 10.781-2.842 2.704-6.586 4.056-11.232 4.056-4.322 0-7.835-1.329-10.539-3.986-2.68-2.681-4.021-6.194-4.021-10.54h9.81c0 1.803.475 3.317 1.422 4.542.948 1.225 2.15 1.837 3.606 1.837 1.687 0 3.016-.624 3.987-1.872.993-1.248 1.49-2.912 1.49-4.992 0-4.969-1.93-7.465-5.79-7.488H10.03V22.29zm28.185 4.888L40.71 1.523h24.44v8.39H48.755l-.901 10.817c1.895-1.272 3.848-1.907 5.858-1.907 4.16 0 7.362 1.479 9.604 4.437 2.264 2.959 3.397 7.142 3.397 12.55 0 5.062-1.34 9.14-4.022 12.238-2.68 3.097-6.263 4.645-10.747 4.645-2.657 0-5.119-.624-7.384-1.872a14.174 14.174 0 01-5.373-5.27c-1.295-2.241-1.953-4.783-1.977-7.626h9.707c.162 2.103.682 3.732 1.56 4.888.879 1.156 2.011 1.733 3.398 1.733 1.618 0 2.866-.774 3.744-2.322.878-1.572 1.317-3.906 1.317-7.003 0-2.912-.531-5.108-1.594-6.587-1.04-1.48-2.508-2.219-4.403-2.219-1.849 0-3.282.636-4.299 1.907l-.624.867-7.8-2.011zm64.24 3.952c0 6.98-1.272 12.319-3.814 16.017-2.52 3.697-6.125 5.546-10.816 5.546-4.646 0-8.24-1.79-10.782-5.373-2.52-3.606-3.825-8.76-3.918-15.462v-9.534c0-6.957 1.26-12.272 3.78-15.947C79.423 2.679 83.04.83 87.754.83s8.332 1.826 10.851 5.478c2.52 3.651 3.802 8.863 3.849 15.635v9.187zm-9.846-10.227c0-3.975-.393-6.957-1.179-8.944-.786-1.988-2.01-2.982-3.675-2.982-3.12 0-4.738 3.64-4.853 10.92v12.585c0 4.068.393 7.095 1.179 9.083.808 1.988 2.056 2.981 3.744 2.981 1.594 0 2.773-.924 3.536-2.773.786-1.872 1.202-4.727 1.248-8.563V20.903z" fill="url(#paint0_linear)"/></symbol><symbol id="icon-70"><path d="M30.9 7.174L14.953 52H4.587L20.604 9.67H.357V1.523H30.9v5.651zM66.539 31.13c0 6.98-1.272 12.319-3.814 16.017-2.52 3.697-6.125 5.546-10.816 5.546-4.646 0-8.24-1.79-10.782-5.373-2.52-3.606-3.825-8.76-3.918-15.462v-9.534c0-6.957 1.26-12.272 3.78-15.947C43.507 2.679 47.124.83 51.838.83c4.715 0 8.332 1.826 10.851 5.478 2.52 3.651 3.802 8.863 3.849 15.635v9.187zm-9.846-10.227c0-3.975-.393-6.957-1.179-8.944-.786-1.988-2.01-2.982-3.675-2.982-3.12 0-4.738 3.64-4.853 10.92v12.585c0 4.068.393 7.095 1.179 9.083.809 1.988 2.056 2.981 3.744 2.981 1.594 0 2.773-.924 3.536-2.773.786-1.872 1.202-4.727 1.248-8.563V20.903z" fill="url(#paint0_linear)"/></symbol><symbol id="icon-900"><path d="M19.326 32.482c-2.08 2.126-4.356 3.19-6.83 3.19-3.836 0-6.864-1.538-9.082-4.611C1.218 27.963.12 23.838.12 18.684c0-3.328.624-6.367 1.872-9.118 1.248-2.773 2.982-4.922 5.2-6.448C9.434 1.593 11.93.83 14.681.83c2.842 0 5.373.844 7.592 2.53 2.219 1.688 3.94 4.115 5.166 7.281 1.224 3.143 1.837 6.726 1.837 10.747v3.571c0 8.598-1.895 15.323-5.686 20.177-3.767 4.83-9.117 7.292-16.05 7.384H6.533v-8.459h.658c3.837-.023 6.714-1.017 8.633-2.981 1.941-1.965 3.108-4.83 3.501-8.598zm-4.333-4.507c1.895 0 3.386-1.294 4.472-3.883v-4.507c0-3.305-.45-5.893-1.352-7.765-.902-1.895-2.069-2.843-3.502-2.843-1.41 0-2.554.936-3.432 2.808-.855 1.85-1.283 4.114-1.283 6.795 0 2.912.451 5.212 1.352 6.899.902 1.664 2.15 2.496 3.745 2.496zm50.546 3.155c0 6.98-1.272 12.319-3.814 16.017-2.52 3.697-6.125 5.546-10.816 5.546-4.646 0-8.24-1.79-10.782-5.373-2.52-3.606-3.825-8.76-3.918-15.462v-9.534c0-6.957 1.26-12.272 3.78-15.947C42.507 2.679 46.124.83 50.838.83c4.715 0 8.332 1.826 10.851 5.478 2.52 3.651 3.802 8.863 3.849 15.635v9.187zm-9.846-10.227c0-3.975-.393-6.957-1.179-8.944-.786-1.988-2.01-2.982-3.675-2.982-3.12 0-4.738 3.64-4.853 10.92v12.585c0 4.068.393 7.095 1.179 9.083.809 1.988 2.056 2.981 3.744 2.981 1.594 0 2.773-.924 3.536-2.773.786-1.872 1.202-4.727 1.248-8.563V20.903zm45.762 10.227c0 6.98-1.272 12.319-3.814 16.017-2.52 3.697-6.125 5.546-10.816 5.546-4.646 0-8.24-1.79-10.782-5.373-2.52-3.606-3.825-8.76-3.918-15.462v-9.534c0-6.957 1.26-12.272 3.78-15.947C78.423 2.679 82.04.83 86.754.83s8.332 1.826 10.851 5.478c2.52 3.651 3.802 8.863 3.849 15.635v9.187zm-9.846-10.227c0-3.975-.393-6.957-1.179-8.944-.786-1.988-2.01-2.982-3.675-2.982-3.12 0-4.738 3.64-4.853 10.92v12.585c0 4.068.393 7.095 1.179 9.083.808 1.988 2.056 2.981 3.744 2.981 1.594 0 2.773-.924 3.536-2.773.786-1.872 1.202-4.727 1.248-8.563V20.903z" fill="url(#paint0_linear)"/></symbol><symbol id="icon-left"><path d="M17 33L1 17 17 1" stroke="#AFAFAF"/></symbol><symbol id="icon-right"><path d="M1 1l16 16L1 33" stroke="#AFAFAF"/></symbol><symbol id="icon-rub" viewBox="0 0 30 42">
<path fill-rule="evenodd" clip-rule="evenodd" d="M18.5 6H10V17H18.5C21.5376 17 24 14.5376 24 11.5C24 8.46243 21.5376 6 18.5 6ZM4 0V23H18.5C24.8513 23 30 17.8513 30 11.5C30 5.14873 24.8513 0 18.5 0H4Z" fill="#102654"/>
<path fill-rule="evenodd" clip-rule="evenodd" d="M0 17H6V23H0V17Z" fill="#102654"/>
<path fill-rule="evenodd" clip-rule="evenodd" d="M3.65854 28.3214V18H9.65854V28.3214H21V34.3214H9.65854V42H3.65854V34.3214H0V28.3214H3.65854Z" fill="#102654"/>
</symbol></svg>
